<svg width="668" height="657" viewBox="0 0 668 657" fill="none" xmlns="http://www.w3.org/2000/svg">
<path id="left-part" d="M245.022 235.274C231.188 260.622 214.04 279.344 193.721 291.298C173.403 303.252 149.337 311.749 121.67 316.934C132.91 322.263 141.844 327.879 148.473 333.352C155.102 338.969 159.713 345.45 162.163 352.651C164.612 359.852 164.612 368.349 162.451 377.999C160.289 387.648 155.534 398.882 148.473 411.844L66.0459 562.922C59.273 575.451 54.9499 586.109 53.0766 595.038C51.2032 603.968 52.3561 611.601 56.6792 618.082C60.8581 624.563 68.4956 629.603 79.1592 633.204C89.967 636.948 104.521 639.685 122.967 641.701L116.194 654.231C87.3731 652.647 64.3166 649.622 47.0242 645.014C29.7319 640.405 17.0508 633.924 9.26922 625.427C1.48765 616.93 -1.39441 605.84 0.623034 592.158C2.64048 578.476 8.98102 561.914 19.6446 542.471L96.4516 401.762C119.94 358.844 105.962 330.616 54.6617 317.366L58.8407 309.733C88.5259 307.14 114.176 299.651 135.792 287.265C157.407 274.88 173.835 258.317 185.219 237.434L269.231 83.4756C287.1 50.6389 313.327 28.0276 347.623 15.6417C381.92 3.25594 424.574 -1.20871 475.587 1.52769L467.085 15.3537C430.194 13.7695 401.518 17.9461 381.055 27.7395C360.593 37.5329 343.444 54.9595 329.899 79.8751L245.166 235.13L245.022 235.274Z" fill="black"/>
<path id="right-part" d="M421.027 423.551C428.075 410.607 435.699 399.532 443.755 390.183C451.811 380.835 460.873 372.924 470.799 366.308C480.725 359.692 491.801 354.226 504.173 349.624C516.4 345.021 530.641 340.85 546.896 336.967C526.901 329.2 513.523 318.557 506.762 305.181C500.001 291.661 503.453 272.245 517.407 246.931L601.991 91.8848C615.657 67.0027 617.959 48.7365 609.04 37.3742C600.121 26.0118 577.537 18.9642 541.286 16.5192L547.903 2.56787C598.827 5.44442 633.782 14.5056 653.059 29.7513C672.335 44.997 672.91 69.1601 655.072 101.953L571.207 255.705C559.843 276.416 557.829 293.819 565.022 307.77C572.214 321.721 588.326 331.502 613.499 337.255L609.328 344.878C547.04 351.925 504.173 376.807 480.725 419.812L404.052 560.331C393.407 579.748 381.899 596.001 369.384 609.089C356.869 622.177 342.484 632.245 326.085 639.437C309.686 646.628 290.985 651.374 269.839 653.819C248.693 656.264 224.094 656.696 196.043 655.114L202.804 642.601C240.925 642.745 269.839 637.711 289.259 627.355C308.679 617 325.222 599.453 338.744 574.427L421.027 423.551Z" fill="black"/>
<path id="bottom-part" d="M520.967 645.764L466.532 648.785L272.283 330.513L326.718 327.492L520.967 645.764Z" fill="current"/>
</svg>
